# xmcd
#
# Track frame offsets: 
#        150
#        12182
#        34445
#        49792
#        58005
#        72565
#        93522
#        111292
#        120772
#        135205
#        148800
#
# Disc length: 2171 seconds
#
# Revision: 0
# Processed by: cddbd v1.4PL0 Copyright (c) Steve Scherf et al.
# Submitted via: ExactAudioCopy v0.95a2
#
DISCID=9908790b
DTITLE=Tracy Chapman - Tracy Chapman
DYEAR=1988
DGENRE=Blues
TTITLE0=Tracy Chapman - For You
TTITLE1=Tracy Chapman - Talkin' Bout A Revolution
TTITLE2=Tracy Chapman - Fast Car
TTITLE3=Tracy Chapman - Across The Lines
TTITLE4=Tracy Chapman - Behind The Wall
TTITLE5=Tracy Chapman - Baby Can I Hold You
TTITLE6=Tracy Chapman - Mountains O' Things
TTITLE7=Tracy Chapman - She's Got Her Ticket
TTITLE8=Tracy Chapman - Why
TTITLE9=Tracy Chapman - For My Lover
TTITLE10=Tracy Chapman - If Not Now
EXTD=
EXTT0=
EXTT1=
EXTT2=
EXTT3=
EXTT4=
EXTT5=
EXTT6=
EXTT7=
EXTT8=
EXTT9=
EXTT10=
PLAYORDER=
